<?xml version="1.0" encoding="UTF-8" standalone="no"?>
<!-- Created with Inkscape (http://www.inkscape.org/) -->

<svg
   width="19.975mm"
   height="286.86224mm"
   viewBox="0 0 19.975 286.86224"
   version="1.1"
   id="svg1"
   xmlns="http://www.w3.org/2000/svg"
   xmlns:svg="http://www.w3.org/2000/svg">
  <defs
     id="defs1" />
  <g
     id="g6393"
     transform="rotate(180,57.5,145.38053)">
    <g
       id="column">
      <path
         d="m 100,46.0561 c 0.6,0 11.123,0.3188 11.409,0.7969 1.995,0.2465 3.566,2.0221 3.566,4.1781 v 5e-4 c 0,0.6776 -0.319,11.1225 -0.797,11.4088 -0.246,1.9943 -2.022,3.5657 -4.178,3.5657 v 0 c -0.678,0 -11.123,-0.3187 -11.4093,-0.7968 -1.9943,-0.2465 -3.5657,-2.0221 -3.5657,-4.1782 v -6e-4 c 10e-5,-0.6775 0.3188,-11.1224 0.7969,-11.4087 0.2465,-1.9943 2.022,-3.5657 4.1781,-3.5657 z"
         style="stroke-width:0px"
         id="path6381" />
      <path
         d="m 101,65.446099 c 1.2,0 10.246,0.6375 10.819,1.5936 1.772,0.4931 3.131,2.2602 3.131,4.3564 v 3e-4 c 0,1.2622 -0.637,10.2456 -1.594,10.8182 -0.493,1.7727 -2.26,3.1315 -4.356,3.1315 v 0 c -1.263,0 -10.2459,-0.6375 -10.8186,-1.5937 -1.7726,-0.493 -3.1314,-2.2602 -3.1314,-4.3563 v -7e-4 c 1e-4,-1.2621 0.6376,-10.2453 1.5938,-10.8179 0.493,-1.7726 2.2601,-3.1314 4.3562,-3.1314 z"
         style="stroke-width:0px"
         id="path6382" />
      <path
         d="m 102,84.835849 c 1.8,0 9.369,0.9562 10.228,2.3905 1.551,0.7396 2.697,2.4983 2.697,4.5345 v 3e-4 c 0,1.8467 -0.956,9.368191 -2.391,10.227191 -0.739,1.551 -2.498,2.698 -4.534,2.698 v 0 c -1.847,0 -9.3689,-0.957 -10.2278,-2.391 -1.551,-0.74 -2.6972,-2.497997 -2.6972,-4.533991 v -10e-4 c 2e-4,-1.847 0.9564,-9.3685 2.3906,-10.2274 0.7396,-1.5509 2.4982,-2.6971 4.5344,-2.6971 z"
         style="stroke-width:0px"
         id="path6383" />
      <path
         d="m 103,104.75526 c 2.4,0 8.492,1.275 9.637,3.187 1.329,0.986 2.263,2.736 2.263,4.713 v 0 c 0,2.431 -1.275,8.491 -3.187,9.637 -0.986,1.329 -2.737,2.263 -4.713,2.263 v 0 c -2.431,0 -8.4918,-1.275 -9.6371,-3.188 -1.3293,-0.986 -2.2629,-2.736 -2.2629,-4.712 v -0.001 c 2e-4,-2.431 1.2752,-8.491 3.1875,-9.637 0.9861,-1.329 2.7365,-2.262 4.7125,-2.262 z"
         style="stroke-width:0px"
         id="path6384" />
      <path
         d="m 104,124.67442 c 3,0 7.615,1.593 9.046,3.984 1.108,1.233 1.829,2.974 1.829,4.891 v 0 c 0,3.016 -1.594,7.615 -3.984,9.046 -1.233,1.108 -2.975,1.829 -4.891,1.829 v 0 c -3.016,0 -7.6148,-1.594 -9.0464,-3.984 -1.1075,-1.233 -1.8286,-2.975 -1.8286,-4.891 v -0.001 c 3e-4,-3.016 1.594,-7.614 3.9844,-9.046 1.2326,-1.107 2.9746,-1.828 4.8906,-1.828 z"
         style="stroke-width:0px"
         id="path6385" />
      <path
         d="m 105,144.59359 c 3.6,0 6.738,1.912 8.456,4.781 0.886,1.479 1.394,3.212 1.394,5.069 v 0 c 0,3.6 -1.912,6.738 -4.781,8.456 -1.479,0.885 -3.213,1.394 -5.069,1.394 v 0 c -3.6,0 -6.7377,-1.912 -8.4557,-4.781 -0.8858,-1.479 -1.3943,-3.213 -1.3943,-5.069 v -0.001 c 4e-4,-3.6 1.9128,-6.737 4.7813,-8.455 1.4787,-0.886 3.2127,-1.394 5.0687,-1.394 z"
         style="stroke-width:0px"
         id="path6386" />
      <path
         d="m 105,164.48776 c 5.457,0 9.85,4.393 9.85,9.85 v 0 c 0,5.457 -4.393,9.85 -9.85,9.85 v 0 c -5.4569,0 -9.85,-4.393 -9.85,-9.85 v -0.001 c 5e-4,-5.456 4.3934,-9.849 9.85,-9.849 z"
         style="stroke-width:0px"
         id="path6387" />
      <path
         d="m 105,185.63192 c 4.764,0 8.6,3.836 8.6,8.6 v 0 c 0,4.765 -3.836,8.6 -8.6,8.6 v 0 c -4.764,0 -8.6,-3.836 -8.6,-8.6 v -0.001 c 4e-4,-4.764 3.836,-8.599 8.6,-8.599 z"
         style="stroke-width:0px"
         id="path6388" />
      <path
         d="m 105,206.77609 c 4.072,0 7.35,3.278 7.35,7.35 v 0.001 c 0,4.071 -3.278,7.349 -7.35,7.349 v 0 c -4.072,0 -7.35,-3.278 -7.35,-7.35 v 0 c 4e-4,-4.072 3.278,-7.35 7.35,-7.35 z"
         style="stroke-width:0px"
         id="path6389" />
      <path
         d="m 105,227.39109 c 3.379,0 6.1,2.721 6.1,6.1 v 10e-4 c 0,3.379 -2.721,6.099 -6.1,6.099 v 0 c -3.38,0 -6.1,-2.72 -6.1,-6.1 v 0 c 3e-4,-3.379 2.721,-6.1 6.1,-6.1 z"
         style="stroke-width:0px"
         id="path6390" />
      <path
         d="m 105,248.53525 c 2.687,0 4.85,2.163 4.85,4.85 v 0 c 0,2.687 -2.163,4.85 -4.85,4.85 h -0.001 c -2.686,-0.001 -4.849,-2.164 -4.849,-4.85 v -0.001 c 0,-2.686 2.163,-4.849 4.85,-4.849 z"
         style="stroke-width:0px"
         id="path6391" />
      <path
         d="m 105,268.62108 c 1.994,0 3.6,1.605 3.6,3.6 v 0.001 c 0,1.994 -1.606,3.599 -3.6,3.599 h -0.001 c -1.994,-10e-4 -3.599,-1.606 -3.599,-3.6 v 0 c 0,-1.995 1.606,-3.6 3.6,-3.6 z"
         style="stroke-width:0px"
         id="path6392" />
      <path
         d="m 105,286.06106 c 1.302,0 2.35,1.048 2.35,2.35 v 10e-4 c -10e-4,1.301 -1.048,2.349 -2.35,2.349 h -0.001 c -1.301,-10e-4 -2.349,-1.048 -2.349,-2.35 v 0 c 0,-1.302 1.048,-2.35 2.35,-2.35 z"
         style="stroke-width:0px"
         id="path6393" />
      <path
         id="rect6415"
         style="stroke-width:0;stroke-linecap:round;stroke-linejoin:round"
         d="M 110.64379,46.58527 H 99.356206 c -2.399488,0 -4.331206,-1.931718 -4.331206,-4.331207 V 8.2300177 c 0,-2.3994886 0.06563,-4.3312068 0.06563,-4.3312068 H 115 c 0,0 -0.025,1.9317182 -0.025,4.3312068 V 42.254063 c 0,2.399489 -1.93172,4.331207 -4.33121,4.331207 z" />
    </g>
  </g>
</svg>
